<svg width="400" height="600" viewBox="0 0 400 600" xmlns="http://www.w3.org/2000/svg">
  <defs>
    <linearGradient id="pitchGradient" x1="0%" y1="0%" x2="0%" y2="100%">
      <stop offset="0%" style="stop-color:#348e38;stop-opacity:1" />
      <stop offset="20%" style="stop-color:#3a9d3f;stop-opacity:1" />
      <stop offset="40%" style="stop-color:#348e38;stop-opacity:1" />
      <stop offset="60%" style="stop-color:#3a9d3f;stop-opacity:1" />
      <stop offset="80%" style="stop-color:#348e38;stop-opacity:1" />
      <stop offset="100%" style="stop-color:#3a9d3f;stop-opacity:1" />
    </linearGradient>
    <filter id="shadow" x="-20%" y="-20%" width="140%" height="140%">
      <feGaussianBlur in="SourceAlpha" stdDeviation="3"/>
      <feOffset dx="2" dy="2" result="offsetblur"/>
      <feComponentTransfer>
        <feFuncA type="linear" slope="0.5"/>
      </feComponentTransfer>
      <feMerge> 
        <feMergeNode/>
        <feMergeNode in="SourceGraphic"/> 
      </feMerge>
    </filter>
  </defs>

  <rect width="400" height="600" fill="url(#pitchGradient)" />
  
  <g stroke="rgba(255,255,255,0.4)" stroke-width="2" fill="none">
    <!-- Outer boundary -->
    <rect x="5" y="5" width="390" height="590" />
    
    <!-- Center line -->
    <line x1="5" y1="300" x2="395" y2="300" />
    
    <!-- Center circle -->
    <circle cx="200" cy="300" r="60" />
    
    <!-- Center spot -->
    <circle cx="200" cy="300" r="3" fill="rgba(255,255,255,0.4)" />
    
    <!-- Bottom Goal Area -->
    <rect x="75" y="5" width="250" height="110" />
    <rect x="135" y="5" width="130" height="40" />
    <path d="M 160 115 A 60 60 0 0 1 240 115" />
    <circle cx="200" cy="75" r="3" fill="rgba(255,255,255,0.4)" />
    
    <!-- Top Goal Area (perspective) -->
    <path d="M 50 595 L 350 595 L 365 480 L 35 480 Z" />
    <path d="M 120 595 L 280 595 L 290 540 L 110 540 Z" />
    <path d="M 155 480 A 70 70 0 0 0 245 480" />
    <circle cx="200" cy="520" r="3" fill="rgba(255,255,255,0.4)" />

    <!-- Corner Arcs -->
    <path d="M 5 20 A 15 15 0 0 1 20 5" />
    <path d="M 380 5 A 15 15 0 0 1 395 20" />
    <path d="M 20 595 A 15 15 0 0 1 5 580" />
    <path d="M 395 580 A 15 15 0 0 1 380 595" />
  </g>
</svg>