<svg xmlns="http://www.w3.org/2000/svg" viewBox="0 0 800 1200">
  <defs>
    <linearGradient id="pitchGradient" x1="0%" y1="0%" x2="0%" y2="100%">
      <stop offset="0%" style="stop-color:#16a34a;stop-opacity:1" />
      <stop offset="100%" style="stop-color:#15803d;stop-opacity:1" />
    </linearGradient>
    <filter id="shadow" x="-20%" y="-20%" width="140%" height="140%">
      <feGaussianBlur in="SourceAlpha" stdDeviation="3"/>
      <feOffset dx="2" dy="2" result="offsetblur"/>
      <feComponentTransfer>
        <feFuncA type="linear" slope="0.5"/>
      </feComponentTransfer>
      <feMerge> 
        <feMergeNode/>
        <feMergeNode in="SourceGraphic"/> 
      </feMerge>
    </filter>
  </defs>

  <!-- Pitch Base -->
  <rect width="800" height="1200" fill="url(#pitchGradient)" />

  <!-- White Lines -->
  <g stroke="rgba(255,255,255,0.7)" stroke-width="5" fill="none">
    <!-- Outer boundary -->
    <rect x="25" y="25" width="750" height="1150" />
    
    <!-- Center line -->
    <line x1="25" y1="600" x2="775" y2="600" />
    
    <!-- Center circle -->
    <circle cx="400" cy="600" r="91.5" />
    
    <!-- Center spot -->
    <circle cx="400" cy="600" r="5" fill="rgba(255,255,255,0.7)" />

    <!-- Home penalty area -->
    <rect x="190" y="25" width="420" height="165" />
    <rect x="310" y="25" width="180" height="55" />
    <circle cx="400" cy="110" r="5" fill="rgba(255,255,255,0.7)" />
    <path d="M 310 190 A 91.5 91.5 0 0 1 490 190" />

    <!-- Away penalty area -->
    <rect x="190" y="1010" width="420" height="165" />
    <rect x="310" y="1120" width="180" height="55" />
    <circle cx="400" cy="1090" r="5" fill="rgba(255,255,255,0.7)" />
    <path d="M 310 1010 A 91.5 91.5 0 0 0 490 1010" />

    <!-- Corner arcs -->
    <path d="M 25 35 A 10 10 0 0 0 35 25" />
    <path d="M 775 35 A 10 10 0 0 1 765 25" />
    <path d="M 25 1165 A 10 10 0 0 1 35 1175" />
    <path d="M 775 1165 A 10 10 0 0 0 765 1175" />
  </g>
</svg>