<svg width="400" height="600" viewBox="0 0 400 600" xmlns="http://www.w3.org/2000/svg">
  <!-- Pitch background -->
  <defs>
    <linearGradient id="pitchGradient" x1="0%" y1="0%" x2="0%" y2="100%">
      <stop offset="0%" style="stop-color:#16a34a;stop-opacity:1" />
      <stop offset="100%" style="stop-color:#15803d;stop-opacity:1" />
    </linearGradient>
  </defs>
  <rect width="400" height="600" fill="url(#pitchGradient)" />

  <!-- Field lines -->
  <rect x="20" y="20" width="360" height="560" fill="none" stroke="rgba(255,255,255,0.3)" stroke-width="2"/>
  
  <!-- Center line -->
  <line x1="20" y1="300" x2="380" y2="300" stroke="rgba(255,255,255,0.3)" stroke-width="2"/>
  
  <!-- Center circle -->
  <circle cx="200" cy="300" r="50" fill="none" stroke="rgba(255,255,255,0.3)" stroke-width="2"/>
  <circle cx="200" cy="300" r="3" fill="rgba(255,255,255,0.3)"/>
  
  <!-- Home penalty area -->
  <rect x="80" y="20" width="240" height="100" fill="none" stroke="rgba(255,255,255,0.3)" stroke-width="2"/>
  <rect x="140" y="20" width="120" height="40" fill="none" stroke="rgba(255,255,255,0.3)" stroke-width="2"/>
  <circle cx="200" cy="80" r="3" fill="rgba(255,255,255,0.3)"/>
  <path d="M 150 120 A 50 50 0 0 1 250 120" fill="none" stroke="rgba(255,255,255,0.3)" stroke-width="2"/>
  
  <!-- Away penalty area -->
  <rect x="80" y="480" width="240" height="100" fill="none" stroke="rgba(255,255,255,0.3)" stroke-width="2"/>
  <rect x="140" y="540" width="120" height="40" fill="none" stroke="rgba(255,255,255,0.3)" stroke-width="2"/>
  <circle cx="200" cy="520" r="3" fill="rgba(255,255,255,0.3)"/>
  <path d="M 150 480 A 50 50 0 0 0 250 480" fill="none" stroke="rgba(255,255,255,0.3)" stroke-width="2"/>
  
  <!-- Corner arcs -->
  <path d="M 20 20 H 30 A 10 10 0 0 0 20 30 Z" fill="none" stroke="rgba(255,255,255,0.3)" stroke-width="2"/>
  <path d="M 380 20 H 370 A 10 10 0 0 1 380 30 Z" fill="none" stroke="rgba(255,255,255,0.3)" stroke-width="2"/>
  <path d="M 20 580 H 30 A 10 10 0 0 1 20 570 Z" fill="none" stroke="rgba(255,255,255,0.3)" stroke-width="2"/>
  <path d="M 380 580 H 370 A 10 10 0 0 0 380 570 Z" fill="none" stroke="rgba(255,255,255,0.3)" stroke-width="2"/>
</svg>
