<svg xmlns="http://www.w3.org/2000/svg" viewBox="0 0 800 1200">
  <defs>
    <linearGradient id="pitchGradient" x1="0%" y1="0%" x2="0%" y2="100%">
      <stop offset="0%" style="stop-color:#348f43;stop-opacity:1" />
      <stop offset="100%" style="stop-color:#2a7d37;stop-opacity:1" />
    </linearGradient>
    <filter id="shadow" x="-20%" y="-20%" width="140%" height="140%">
      <feGaussianBlur in="SourceAlpha" stdDeviation="3"/>
      <feOffset dx="2" dy="2" result="offsetblur"/>
      <feComponentTransfer>
        <feFuncA type="linear" slope="0.5"/>
      </feComponentTransfer>
      <feMerge> 
        <feMergeNode/>
        <feMergeNode in="SourceGraphic"/> 
      </feMerge>
    </filter>
  </defs>

  <!-- Pitch Base -->
  <rect width="800" height="1200" fill="url(#pitchGradient)" />

  <!-- Field Lines -->
  <g stroke="rgba(255,255,255,0.4)" stroke-width="5" fill="none">
    <!-- Outer Boundary -->
    <path d="M50 50 L750 150 L750 1050 L50 1150 Z" />
    
    <!-- Half-way Line -->
    <path d="M50 600 L750 600" />
    
    <!-- Center Circle -->
    <ellipse cx="400" cy="600" rx="120" ry="25" />
    
    <!-- Center Spot -->
    <circle cx="400" cy="600" r="8" fill="rgba(255,255,255,0.4)" />
    
    <!-- Top Penalty Area -->
    <path d="M190 50 L610 90 L610 290 L190 250 Z" />
    
    <!-- Top Goal Area -->
    <path d="M300 50 L500 70 L500 170 L300 150 Z" />

    <!-- Top Penalty Arc -->
    <path d="M 330 255 A 100 20 0 0 1 470 255" stroke-dasharray="8, 6" />

    <!-- Bottom Penalty Area -->
    <path d="M190 1150 L610 1110 L610 910 L190 950 Z" />

    <!-- Bottom Goal Area -->
    <path d="M300 1150 L500 1130 L500 1030 L300 1050 Z" />
    
    <!-- Bottom Penalty Arc -->
    <path d="M 330 945 A 100 20 0 0 0 470 945" stroke-dasharray="8, 6" />

    <!-- Corner Arcs -->
    <path d="M50 50 L100 60 A 50 10 0 0 1 60 100 Z" />
    <path d="M750 150 L700 160 A 50 10 0 0 0 740 200 Z" />
    <path d="M50 1150 L100 1140 A 50 10 0 0 0 60 1100 Z" />
    <path d="M750 1050 L700 1040 A 50 10 0 0 1 740 1000 Z" />
  </g>
</svg>
