<svg width="300" height="400" viewBox="0 0 300 400" xmlns="http://www.w3.org/2000/svg">
    <!-- Pitch Outline -->
    <rect x="2" y="2" width="296" height="396" fill="#166534" stroke="#FFFFFF" stroke-width="2"/>

    <!-- Center Line -->
    <line x1="2" y1="200" x2="298" y2="200" stroke="#FFFFFF" stroke-width="2"/>

    <!-- Center Circle -->
    <circle cx="150" cy="200" r="40" stroke="#FFFFFF" stroke-width="2" fill="none"/>
    <circle cx="150" cy="200" r="3" fill="#FFFFFF"/>

    <!-- Top Penalty Area -->
    <rect x="55" y="2" width="190" height="70" stroke="#FFFFFF" stroke-width="2" fill="none"/>

    <!-- Top Goal Area -->
    <rect x="100" y="2" width="100" height="25" stroke="#FFFFFF" stroke-width="2" fill="none"/>

    <!-- Top Penalty Arc -->
    <path d="M 105 70 A 40 40 0 0 1 195 70" stroke="#FFFFFF" stroke-width="2" fill="none"/>

    <!-- Top Penalty Spot -->
    <circle cx="150" cy="45" r="2" fill="#FFFFFF"/>

    <!-- Bottom Penalty Area -->
    <rect x="55" y="328" width="190" height="70" stroke="#FFFFFF" stroke-width="2" fill="none"/>

    <!-- Bottom Goal Area -->
    <rect x="100" y="373" width="100" height="25" stroke="#FFFFFF" stroke-width="2" fill="none"/>

    <!-- Bottom Penalty Arc -->
    <path d="M 105 328 A 40 40 0 0 0 195 328" stroke="#FFFFFF" stroke-width="2" fill="none"/>

    <!-- Bottom Penalty Spot -->
    <circle cx="150" cy="355" r="2" fill="#FFFFFF"/>

    <!-- Corner Arcs -->
    <path d="M 2 2 H 12 A 10 10 0 0 1 2 12 Z" fill="#166534" stroke="#FFFFFF" stroke-width="2"/>
    <path d="M 298 2 H 288 A 10 10 0 0 0 298 12 Z" fill="#166534" stroke="#FFFFFF" stroke-width="2"/>
    <path d="M 2 398 H 12 A 10 10 0 0 0 2 388 Z" fill="#166534" stroke="#FFFFFF" stroke-width="2"/>
    <path d="M 298 398 H 288 A 10 10 0 0 1 298 388 Z" fill="#166534" stroke="#FFFFFF" stroke-width="2"/>
</svg>
